<?xml version="1.0" encoding="utf-8"?>
<!-- Generator: Adobe Illustrator 15.1.0, SVG Export Plug-In . SVG Version: 6.00 Build 0)  -->
<!DOCTYPE svg PUBLIC "-//W3C//DTD SVG 1.1//EN" "http://www.w3.org/Graphics/SVG/1.1/DTD/svg11.dtd">
<svg version="1.1" id="Layer_1" xmlns="http://www.w3.org/2000/svg" xmlns:xlink="http://www.w3.org/1999/xlink" x="0px" y="0px"
	 width="32px" height="32px" viewBox="0 0 32 32" enable-background="new 0 0 32 32" xml:space="preserve">
<g>
	
		<polyline fill="none" stroke="#FFFFFF" stroke-width="2" stroke-linecap="round" stroke-linejoin="round" stroke-miterlimit="10" points="
		649,137.999 675,137.999 675,155.999 661,155.999 	"/>
	
		<polyline fill="none" stroke="#FFFFFF" stroke-width="2" stroke-linecap="round" stroke-linejoin="round" stroke-miterlimit="10" points="
		653,155.999 649,155.999 649,141.999 	"/>
	
		<polyline fill="none" stroke="#FFFFFF" stroke-width="2" stroke-linecap="round" stroke-linejoin="round" stroke-miterlimit="10" points="
		661,156 653,162 653,156 	"/>
</g>
<g>
	<g>
		<path fill="#EC6B39" d="M16,30c-4.411,0-8-3.589-8-8s3.589-8,8-8s8,3.589,8,8S20.411,30,16,30z M16,16c-3.309,0-6,2.691-6,6
			s2.691,6,6,6c3.309,0,6-2.691,6-6S19.309,16,16,16z"/>
	</g>
	<g>
		<path fill="#EC6B39" d="M18,16h-4c-0.315,0-0.611-0.148-0.8-0.4l-3-4C10.07,11.427,10,11.216,10,11V7c0-0.552,0.448-1,1-1
			s1,0.448,1,1v3.667L14.5,14h3l2.5-3.333V4h-9c-0.552,0-1-0.448-1-1s0.448-1,1-1h10c0.553,0,1,0.448,1,1v8
			c0,0.216-0.07,0.427-0.2,0.6l-3,4C18.611,15.852,18.314,16,18,16z"/>
	</g>
</g>
</svg>
