<?xml version="1.0" encoding="utf-8"?>
<!-- Generator: Adobe Illustrator 15.1.0, SVG Export Plug-In . SVG Version: 6.00 Build 0)  -->
<!DOCTYPE svg PUBLIC "-//W3C//DTD SVG 1.1//EN" "http://www.w3.org/Graphics/SVG/1.1/DTD/svg11.dtd">
<svg version="1.1" id="Capa_1" xmlns="http://www.w3.org/2000/svg" xmlns:xlink="http://www.w3.org/1999/xlink" x="0px" y="0px"
	 width="612px" height="612px" viewBox="0 0 612 612" enable-background="new 0 0 612 612" xml:space="preserve">
<g>
	<g>
		<path fill="#FFFFFF" d="M612,306C612,137.004,474.995,0,306,0C137.004,0,0,137.004,0,306c0,168.995,137.004,306,306,306
			C474.995,612,612,474.995,612,306z M27.818,306C27.818,152.36,152.36,27.818,306,27.818c153.64,0,278.182,124.542,278.182,278.182
			c0,153.64-124.542,278.182-278.182,278.182C152.36,584.182,27.818,459.64,27.818,306z"/>
	</g>
</g>
<g>
	<g>
		<path fill="#FFFFFF" d="M166.517,437.08h53.098V224.688h-53.098V437.08z M378.909,224.688
			c-45.459,0.761-67.823,33.896-70.798,35.399v-35.399h-53.098V437.08h53.098V313.185c0-4.542,11.2-40.929,53.099-35.398
			c22.505,1.469,34.639,31.233,35.398,35.398V437.08l52.892,0.242V290.283C447.632,269.057,437.02,225.448,378.909,224.688z
			 M193.066,153.891c-14.657,0-26.549,11.874-26.549,26.549c0,14.675,11.892,26.548,26.549,26.548s26.549-11.874,26.549-26.548
			C219.615,165.765,207.723,153.891,193.066,153.891z"/>
	</g>
</g>
</svg>
