<?xml version="1.0" encoding="utf-8"?>
<!-- Generator: Adobe Illustrator 15.1.0, SVG Export Plug-In . SVG Version: 6.00 Build 0)  -->
<!DOCTYPE svg PUBLIC "-//W3C//DTD SVG 1.1//EN" "http://www.w3.org/Graphics/SVG/1.1/DTD/svg11.dtd">
<svg version="1.1" id="Layer_1" xmlns="http://www.w3.org/2000/svg" xmlns:xlink="http://www.w3.org/1999/xlink" x="0px" y="0px"
	 width="32px" height="32px" viewBox="0 0 32 32" enable-background="new 0 0 32 32" xml:space="preserve">
<g>
	
		<polyline fill="none" stroke="#FFFFFF" stroke-width="2" stroke-linecap="round" stroke-linejoin="round" stroke-miterlimit="10" points="
		649,137.999 675,137.999 675,155.999 661,155.999 	"/>
	
		<polyline fill="none" stroke="#FFFFFF" stroke-width="2" stroke-linecap="round" stroke-linejoin="round" stroke-miterlimit="10" points="
		653,155.999 649,155.999 649,141.999 	"/>
	
		<polyline fill="none" stroke="#FFFFFF" stroke-width="2" stroke-linecap="round" stroke-linejoin="round" stroke-miterlimit="10" points="
		661,156 653,162 653,156 	"/>
</g>
<g>
	<path fill="#EC6B39" d="M29,27H3c-0.552,0-1-0.447-1-1V10c0-0.552,0.448-1,1-1s1,0.448,1,1v15h24V7H3C2.448,7,2,6.552,2,6
		s0.448-1,1-1h26c0.553,0,1,0.448,1,1v20C30,26.553,29.553,27,29,27z"/>
</g>
<g>
	<path fill="#EC6B39" d="M16,19c-0.256,0-0.512-0.098-0.707-0.293l-8-8c-0.391-0.391-0.391-1.023,0-1.414s1.023-0.391,1.414,0
		L16,16.586l7.293-7.293c0.391-0.391,1.023-0.391,1.414,0s0.391,1.023,0,1.414l-8,8C16.512,18.902,16.256,19,16,19z"/>
</g>
<g>
	<path fill="#EC6B39" d="M24.001,23c-0.256,0-0.513-0.098-0.707-0.293l-3.002-3.002c-0.392-0.391-0.392-1.023,0-1.414
		s1.022-0.391,1.414,0l3.002,3.002c0.392,0.391,0.392,1.023,0,1.414C24.514,22.902,24.257,23,24.001,23z"/>
</g>
<g>
	<path fill="#EC6B39" d="M8.001,23c-0.256,0-0.512-0.098-0.707-0.293c-0.391-0.391-0.391-1.023,0-1.414l2.999-2.999
		c0.391-0.392,1.023-0.392,1.414,0s0.391,1.022,0,1.414l-2.999,2.999C8.513,22.902,8.257,23,8.001,23z"/>
</g>
</svg>
