<?xml version="1.0" encoding="utf-8"?>
<!-- Generator: Adobe Illustrator 15.1.0, SVG Export Plug-In . SVG Version: 6.00 Build 0)  -->
<!DOCTYPE svg PUBLIC "-//W3C//DTD SVG 1.1//EN" "http://www.w3.org/Graphics/SVG/1.1/DTD/svg11.dtd">
<svg version="1.1" id="Layer_1" xmlns="http://www.w3.org/2000/svg" xmlns:xlink="http://www.w3.org/1999/xlink" x="0px" y="0px"
	 width="32px" height="32px" viewBox="0 0 32 32" enable-background="new 0 0 32 32" xml:space="preserve">
<g>
	
		<polyline fill="none" stroke="#FFFFFF" stroke-width="2" stroke-linecap="round" stroke-linejoin="round" stroke-miterlimit="10" points="
		649,137.999 675,137.999 675,155.999 661,155.999 	"/>
	
		<polyline fill="none" stroke="#FFFFFF" stroke-width="2" stroke-linecap="round" stroke-linejoin="round" stroke-miterlimit="10" points="
		653,155.999 649,155.999 649,141.999 	"/>
	
		<polyline fill="none" stroke="#FFFFFF" stroke-width="2" stroke-linecap="round" stroke-linejoin="round" stroke-miterlimit="10" points="
		661,156 653,162 653,156 	"/>
</g>
<path fill="#EC6B39" d="M28.172,3.828c-0.964-0.964-2.186-1.575-3.533-1.767c-1.961-0.278-3.895,0.367-5.293,1.767
	c-0.392,0.391-0.392,1.024,0,1.415c0.021,0.021,0.047,0.028,0.069,0.046c0.019,0.021,0.024,0.048,0.046,0.069l2.885,2.884
	L7.449,23.139l-2.293-2.294L17.793,8.208c0.391-0.391,0.391-1.023,0-1.414s-1.023-0.391-1.414,0L3.037,20.136
	c-0.001,0.001-0.002,0.001-0.003,0.003L2.292,20.88c-0.094,0.095-0.167,0.206-0.217,0.327C2.026,21.329,2,21.458,2,21.587V29
	c0,0.553,0.448,1,1,1h7.414c0.265,0,0.52-0.105,0.707-0.293l17.051-17.051C30.605,10.222,30.605,6.262,28.172,3.828z M24.357,4.042
	c0.914,0.13,1.744,0.545,2.399,1.2c1.409,1.41,1.606,3.567,0.614,5.199l-2.906-2.907l0,0l0,0l-2.916-2.916
	C22.38,4.109,23.363,3.901,24.357,4.042z M4,28v-5.482l2.74,2.74c0.001,0.001,0.001,0.002,0.001,0.002l0.002,0.001L9.482,28H4z
	 M8.863,24.552L23.758,9.656l2.293,2.293L11.155,26.845L8.863,24.552z"/>
</svg>
