<?xml version="1.0" encoding="utf-8"?>
<!-- Generator: Adobe Illustrator 15.1.0, SVG Export Plug-In . SVG Version: 6.00 Build 0)  -->
<!DOCTYPE svg PUBLIC "-//W3C//DTD SVG 1.1//EN" "http://www.w3.org/Graphics/SVG/1.1/DTD/svg11.dtd">
<svg version="1.1" id="Layer_1" xmlns="http://www.w3.org/2000/svg" xmlns:xlink="http://www.w3.org/1999/xlink" x="0px" y="0px"
	 width="32px" height="32px" viewBox="0 0 32 32" enable-background="new 0 0 32 32" xml:space="preserve">
<g>
	
		<polyline fill="none" stroke="#FFFFFF" stroke-width="2" stroke-linecap="round" stroke-linejoin="round" stroke-miterlimit="10" points="
		649,137.999 675,137.999 675,155.999 661,155.999 	"/>
	
		<polyline fill="none" stroke="#FFFFFF" stroke-width="2" stroke-linecap="round" stroke-linejoin="round" stroke-miterlimit="10" points="
		653,155.999 649,155.999 649,141.999 	"/>
	
		<polyline fill="none" stroke="#FFFFFF" stroke-width="2" stroke-linecap="round" stroke-linejoin="round" stroke-miterlimit="10" points="
		661,156 653,162 653,156 	"/>
</g>
<g>
	<g>
		<path fill="#EC6B39" d="M16,25c-4.265,0-8.301-1.807-11.367-5.088c-0.377-0.403-0.355-1.036,0.048-1.413
			c0.404-0.377,1.036-0.354,1.414,0.048C8.778,21.419,12.295,23,16,23c4.764,0,9.148-2.605,11.84-7C25.15,11.605,20.764,9,16,9
			c-4.938,0-9.472,2.801-12.13,7.493c-0.272,0.481-0.884,0.651-1.363,0.377c-0.481-0.272-0.649-0.882-0.377-1.363
			C5.147,10.18,10.333,7,16,7c5.668,0,10.854,3.18,13.87,8.507c0.173,0.306,0.173,0.68,0,0.985C26.854,21.818,21.668,25,16,25z"/>
	</g>
	<g>
		<path fill="#EC6B39" d="M16,21c-2.757,0-5-2.243-5-5s2.243-5,5-5s5,2.243,5,5S18.757,21,16,21z M16,13c-1.654,0-3,1.346-3,3
			c0,1.654,1.346,3,3,3c1.654,0,3-1.346,3-3C19,14.346,17.654,13,16,13z"/>
	</g>
</g>
</svg>
